<svg data-v-fde0c5aa="" xmlns="http://www.w3.org/2000/svg" viewBox="0 0 300 300" class="icon"><!----><defs data-v-fde0c5aa=""><!----></defs><rect data-v-fde0c5aa="" fill="#FCF2F7" x="0" y="0" ></rect><!----><defs data-v-fde0c5aa=""><linearGradient data-v-fde0c5aa="" gradientTransform="rotate(25)" id="8c0494ff-4630-4ddf-a3eb-3a6b792d1571" x1="0%" y1="0%" x2="100%" y2="0%"><stop data-v-fde0c5aa="" offset="0%" stop-color="#D418EA" stop-opacity="1"></stop><stop data-v-fde0c5aa="" offset="100%" stop-color="#ECD062" stop-opacity="1"></stop></linearGradient></defs><g data-v-fde0c5aa="" id="92872408-3139-4335-8960-612e4acf9334" fill="url(#8c0494ff-4630-4ddf-a3eb-3a6b792d1571)" stroke="none" transform="matrix(2.2,0,0,2.2,39.999999999999986,85.1)"><path d="M97.901 18l-.003.001C96.896 7.895 88.372 0 78 0a19.88 19.88 0 0 0-10.498 3H32.498A19.88 19.88 0 0 0 22 0C11.628 0 3.104 7.895 2.102 18.001L2.099 18C1.751 22.175 0 50.691 0 51a8 8 0 0 0 8 8c18.377 0 25.943-15.686 28.666-24h26.668C66.057 43.314 73.623 59 92 59a8 8 0 0 0 8-8c0-.309-1.751-28.825-2.099-33zM22 32c-6.629 0-12-5.373-12-12S15.371 8 22 8s12 5.373 12 12-5.371 12-12 12zm56 0c-6.629 0-12-5.373-12-12S71.371 8 78 8s12 5.373 12 12-5.371 12-12 12z"></path><path d="M31 17h-6v-6h-6v6h-6v6h6v6h6v-6h6zM78 16a3.999 3.999 0 1 1-8 0 3.999 3.999 0 1 1 8 0zM86 24a3.999 3.999 0 1 1-8 0 3.999 3.999 0 1 1 8 0z"></path></g><!----></svg>